<svg width="16" height="12" viewBox="0 0 16 12" fill="none" xmlns="http://www.w3.org/2000/svg">
<path fill-rule="evenodd" clip-rule="evenodd" d="M7.66367 2.60802C9.87957 2.60811 12.0107 3.45955 13.6167 4.98635C13.7376 5.10422 13.9309 5.10274 14.05 4.98302L15.206 3.81635C15.2663 3.75563 15.2999 3.67338 15.2994 3.58779C15.2989 3.50221 15.2644 3.42036 15.2033 3.36035C10.9882 -0.679198 4.33844 -0.679198 0.123342 3.36035C0.062283 3.42032 0.0276391 3.50215 0.0270761 3.58773C0.026513 3.67331 0.0600773 3.75558 0.120342 3.81635L1.27667 4.98302C1.3957 5.10292 1.58915 5.10441 1.71001 4.98635C3.31616 3.45945 5.44756 2.60801 7.66367 2.60802ZM7.66367 6.40368C8.88116 6.40361 10.0552 6.85614 10.9577 7.67335C11.0797 7.78933 11.272 7.78682 11.391 7.66768L12.5457 6.50102C12.6065 6.43982 12.6402 6.3568 12.6393 6.27054C12.6385 6.18427 12.603 6.10196 12.541 6.04202C9.79281 3.48563 5.53687 3.48563 2.78868 6.04202C2.7266 6.10196 2.69118 6.18432 2.69036 6.27061C2.68955 6.3569 2.72341 6.43991 2.78434 6.50102L3.93867 7.66768C4.05766 7.78682 4.24995 7.78933 4.37201 7.67335C5.27388 6.85668 6.44699 6.40419 7.66367 6.40368ZM9.97667 8.9575C9.97844 9.04401 9.94443 9.12741 9.88268 9.18802L7.88534 11.2037C7.82679 11.2629 7.74697 11.2963 7.66368 11.2963C7.58038 11.2963 7.50056 11.2629 7.44201 11.2037L5.44434 9.18802C5.38263 9.12737 5.34868 9.04394 5.35051 8.95743C5.35234 8.87092 5.38979 8.789 5.45401 8.73102C6.72958 7.65213 8.59777 7.65213 9.87334 8.73102C9.93752 8.78905 9.9749 8.87099 9.97667 8.9575Z" fill="black"/>
</svg>
